<?xml version="1.0" encoding="utf-8"?>
<!-- Generator: Adobe Illustrator 18.0.0, SVG Export Plug-In . SVG Version: 6.00 Build 0)  -->
<!DOCTYPE svg PUBLIC "-//W3C//DTD SVG 1.1//EN" "http://www.w3.org/Graphics/SVG/1.1/DTD/svg11.dtd">
<svg xmlns="http://www.w3.org/2000/svg" xmlns:xlink="http://www.w3.org/1999/xlink" version="1.1" id="Слой_1" x="0px" y="0px" viewBox="0 0 1024 510.8" enable-background="new 0 0 1024 510.8" xml:space="preserve">
<path fill="#c58c54" stroke="" stroke-width="2" stroke-linecap="round" stroke-linejoin="round" stroke-miterlimit="10" d="  M168,46.4c13.1,0,33.8,10.9,33.8,10.9c63.3-10.9,118.3,4.4,118.3,4.4c15.7,0.2,32.2,3.3,32.2,3.3c22.4-12,83.4-7.6,83.4-7.6  c33.4,5.3,56.2,6,56.2,6c16.4-2.7,139.6-13.1,139.6-13.1C704,45.9,738.9,66,738.9,66c14.2,6,43,11,43,11  c25.1-3.8,56.8,24.4,56.8,24.4c20.2,12,41.9,46.5,41.9,46.5l-8.1-2.3c10.9,6.2,30.9,46.5,30.9,46.5h-5.3  c7.1,7.3,20.2,31.9,20.2,31.9c-3.3,1.1-14.7-8.6-14.7-8.6c6,16.3,23.4,20.7,23.4,20.7c9.3,1.6,28.3,14.2,28.3,14.2h-8.1  c18.5,4.2,26.8,8.3,26.8,8.3h-12.6c22.9,6.2,36.5,23.5,36.5,23.5c3.3,3.3,8.7,0.9,8.7,0.9c-0.5,3.8-8.7,8.5-8.7,8.5  c6.5,1.1,13.1-5.6,13.1-5.6c-4.9,13.1-22.4,16.3-22.4,16.3c2.7,2.2,14.7,0,14.7,0c-13.6,7.6-28.9,8.7-28.9,8.7  c3.3,3.3,8.2,3.3,8.2,3.3c-21.8,8.7-34.4,1.1-34.4,1.1c-2.2,4.4,6.5,8.2,6.5,8.2c-31.1,2.2-43.1-15.8-43.1-15.8  c-2.2,1.1,1.6,8.7,1.6,8.7c-13.6-3.8-27.3-32.7-27.3-32.7c-3.3,2.2,1.1,12.5,1.1,12.5c-3.8-2.7-8.9-10.9-8.9-10.9  c8.7,37.1,53.6,49.1,53.6,49.1c14.2,2.2,22.9,29.4,22.9,29.4c8.2,14.2,31.6,63.3,31.6,63.3c4.4,2.7,6.1,10.5,6.1,10.5  c3.2,1.3,7.1,2.9,7.1,2.9c13.4,6.4,13,19.8,13,19.8c5.1,3.1,4.9,9.1,4.9,9.1c6.1,1.9,3.3,13.4,3.3,13.4c-5.8,18.2-18.2,9.1-18.2,9.1  c-6.2-10.7-23.3-19.7-23.3-19.7s-14.7-6.5-21.3-30c0,0-25.6-59.4-75.8-84c0,0-99.8-39.8-126.5-76.3L740,261.2c0,0-2.2,11.2,5.5,14.2  c0,0-8.7-2.2-9.8-7.1c0,0-0.5,7.1,4.4,10.9c0,0-7.6-2.7-9.8-7.6c0,0-2.7,8.7,0,12c0,0-4.4-3.8-4.4-6c0,0-6.2,7.8-5.6,20.4l-3.7-6.8  c0,0-2.7,12.5,0,20.2l-4.9-9.3c0,0-8.2,18-4.9,45.3c0,0,4.5,52.9-0.8,58.9c0,0-26.5,26.2-29.2,33.8l0.7-7.6c0,0-6.6,8.7-8.3,13.6  c0,0-8.6,15.7-13.6,17.4c0,0-2.2-1.4-5,1.8c-2.9,3.2-15.8,12.7-15.8,12.7c-8.2,12.2-17.3,6.3-17.3,6.3c-3.6,1.6-6.5,0.9-6.5,0.9  c-15.6-3.2-17.1-2.3-23.1-9.7c-6.3-7.7,0.7-12,0.7-12c-1.4-11.4,21-12.9,21-12.9c9.6,2,22-8.7,22-8.7c6-11.3,19.1-25.9,19.1-25.9  l3.4-7.6c3.4-7.6,8.2-33.8,8.2-33.8c5.5-21.8-11.8-76.3-11.8-76.3c-11.8-35.4-4-57.8-4-57.8c5.5-16.9,3.8-19.1,3.8-19.1  c-30-3.3-17.4-21.3-17.4-21.3c-24.7,10.9-37.5,23.6-37.5,23.6l3.7,1c-12.5,10.4-43.6,13.5-43.6,13.5c0,2.7,8.7,3.9,8.7,3.9  c-10.4,7.1-43.1,12-43.1,12c1.6,1.6,9.3,1.6,9.3,1.6c-4.4,5.5-46.9,8.7-46.9,8.7c2.2,1.6,0.5,10.4,0.5,10.4c3.3-1.1,3.3-5.5,3.3-5.5  c3.8,4.4,1.6,20.7,1.6,20.7c3.8-1.1,3.3-7.6,3.3-7.6c4.4,4.9,3.3,20.7,3.3,20.7c3.8,6,9.8,33.1,9.8,33.1c4.7,21,12,60.2,12,60.2  c0.3,11.7,6.1,11.2,6.1,11.2c9.7,0.5,5.7,10.2,5.7,10.2s-2.1,6.1-0.2,3.6c1.9-2.5,16.8,0.8,16.8,0.8l-3.7,4  c4.5-1.3,12.2,3.7,12.2,3.7l-7.6,1.7c0.5,0.2,2.2,0.9,4.2,1.8c3.2,1.3,7.1,2.9,7.1,2.9c13.4,6.4,13,21.9,13,21.9  c5.1,3.1,4.9,9.1,4.9,9.1c6.1,1.9,3.3,13.4,3.3,13.4c-5.8,18.2-18.2,9.1-18.2,9.1c-6.1-10.7-23.3-28.1-23.3-28.1  c-11.7-13-34.1-24-34.1-24c-12.9-2.5-26.3-49.5-26.3-49.5l-2.1-5.4c-6.8-15.9-40.6-74.2-40.6-74.2c-3.8-6-16-19.6-16-19.6  c-8.7-2.2-28.5-15-28.5-15v5.7c-7.3-1.6-16.6-9.9-16.6-9.9v7.7c-5.2-1.1-10-10.4-10-10.4c-3.8-0.5-2.8,9.3-2.8,9.3l-4.8-6.7  c0,0-10.5,14.8-18.8,22.6c-1.6,1.5-3.1,3.4-4.4,4.5h4.5c0,0-10.5,15.6-14.8,18.7h5.5c0,0-6.6,10.4-18,15.6h6.6c0,0-8.2,5-13.1,15.9  c0,0-13.1,23.6-25.6,30.1c0,0-21.3,27.6-36,46.7c0,0-11.4,11.4-18.5,27.7c0,0-10.8,24.5-21.7,18.5c0,0-2.9,2.1-6,11.3l-2.1-3.9  c0,0-4.1,9.4-7.4,12.2c0,0,3.3-3.8,0-7.6c0,0-1.6,6.5-6.5,13.1l-2.7-3.8c-3.3,2.7-17.4,10.4-17.4,10.4c-9.8,10.9-18,3.8-18,3.8  c-3.8,1.1-6.5,0-6.5,0c-15-5.3-16.6-4.6-21.6-12.8c-5.1-8.5,2.3-11.8,2.3-11.8c0.2-11.5,22.6-9.8,22.6-9.8  c9.3,3.3,22.9-5.5,22.9-5.5c7.6-10.4,22.3-22.9,22.3-22.9c6-12,49.7-91.6,49.7-91.6c9.8-19.1,23.5-45.9,23.5-45.9  c7.1-15.8,10.9-31.7,10.9-31.7c-6-12-3.4-47.7-3.4-47.7l-10.8-11v4.9c-4.2-6-8.3-4.9-8.3-4.9v2.1c-7.3-4.9-26.6-8.6-26.6-8.6  c-21.8-2.2-36.8-24.5-36.8-24.5c-14.2,3.3-34.7,0-34.7,0c-5.5,3.8-16.8,5.5-16.8,5.5c-6.5-1.1-18.4,3.3-18.4,3.3  c-10.3,7.1-33.2,11.2-33.2,11.2c-22.9,19.4-38.6,9-38.6,9c-9.3-3.8,0.2-18,0.2-18s-13.2,1.1-15.1,0.5c-8.2-2.2-25.6-21.3-20.7-25.1  c0,0,3.8-5.5,6.5-5.5c0,0,7.1-7.6,47.4-35.4c0,0,9.3-8.7,7.1-18c0,0-4.4-8.2,14.2-24c0,0,21.2-24.5,29.4-28.9  c0,0-25.6-32.2-27.2-52.9c0,0,2.7-4.4,9.3,3.3c0,0,15.8,12.5,20.2,20.2c0,0-5.5-22.7-1.1-24.7c0,0,4.9-7.5,23.4,13.2  c0,0,22.9,17.5,25.6,21.3l6.5,5.5L168,46.4z"/>
</svg>
